<svg width="42" height="42" viewBox="0 0 42 42" fill="none" xmlns="http://www.w3.org/2000/svg">
<path d="M3 8C3 25.1208 16.8792 39 34 39C34.7724 39 35.5382 38.9718 36.2966 38.9162C37.1668 38.8524 37.6018 38.8206 37.998 38.5926C38.326 38.4038 38.637 38.069 38.8014 37.728C39 37.3164 39 36.8362 39 35.876V30.2414C39 29.4338 39 29.03 38.867 28.684C38.7498 28.3782 38.559 28.106 38.3118 27.8912C38.032 27.648 37.6524 27.51 36.8936 27.234L30.48 24.9018C29.597 24.5808 29.1554 24.4202 28.7366 24.4474C28.3672 24.4714 28.0118 24.5976 27.7098 24.8116C27.3674 25.0542 27.1258 25.457 26.6424 26.2628L25 29C19.7002 26.5998 15.4038 22.2978 13 17L15.7373 15.3576C16.5429 14.8743 16.9457 14.6326 17.1884 14.2901C17.4024 13.9882 17.5286 13.6327 17.5526 13.2634C17.5798 12.8445 17.4192 12.4031 17.0982 11.5201L14.766 5.10642C14.49 4.34752 14.352 3.96806 14.1088 3.6882C13.894 3.44098 13.6218 3.2503 13.316 3.1329C12.9699 3 12.5662 3 11.7586 3H6.12402C5.16376 3 4.68362 3 4.27196 3.1985C3.931 3.36292 3.59628 3.67402 3.4074 4.00206C3.17936 4.39814 3.1475 4.83324 3.08378 5.70346C3.02826 6.46172 3 7.22756 3 8Z" stroke="black" stroke-width="5" stroke-linecap="round" stroke-linejoin="round"/>
</svg>
