<svg width="48" height="40" viewBox="0 0 48 40" fill="none" xmlns="http://www.w3.org/2000/svg">
<path fill-rule="evenodd" clip-rule="evenodd" d="M21.4938 0C9.64119 0 0 8.97106 0 19.9998C0 24.3737 1.51633 28.43 4.09396 31.7225L1.41505 39.1532L9.67898 36.6963C13.0779 38.7892 17.1341 40 21.5062 40C33.3588 40 43 31.0286 43 20.0002C43 8.97142 33.3588 0.000330607 21.5062 0.000330607L21.4938 0ZM15.4915 10.159C15.0746 9.23023 14.7587 9.19506 14.1271 9.17117C13.912 9.15955 13.6724 9.14795 13.4067 9.14795C12.5851 9.14795 11.726 9.37127 11.2078 9.86504C10.5762 10.4647 9.00924 11.8636 9.00924 14.7327C9.00924 17.6017 11.2584 20.3764 11.5616 20.7647C11.8775 21.1523 15.9465 27.1253 22.2644 29.5596C27.205 31.4643 28.6711 31.2878 29.7955 31.0644C31.4381 30.7353 33.4979 29.606 34.0161 28.2425C34.5342 26.8784 34.5342 25.7143 34.3823 25.4674C34.2307 25.2205 33.8135 25.0798 33.1819 24.7855C32.5503 24.4915 29.4795 23.0806 28.8982 22.8924C28.3294 22.6926 27.7863 22.7633 27.3569 23.3278C26.7503 24.1155 26.1566 24.9153 25.6762 25.3971C25.2971 25.7734 24.6776 25.8205 24.1598 25.6204C23.4648 25.3503 21.5191 24.7148 19.118 22.7278C17.2604 21.1878 15.9969 19.2715 15.6306 18.6954C15.264 18.1077 15.5928 17.7663 15.8831 17.449C16.199 17.0844 16.5022 16.8259 16.8181 16.4847C17.1341 16.1439 17.311 15.9674 17.5132 15.5676C17.7282 15.1796 17.5763 14.7798 17.4247 14.4858C17.2732 14.1918 16.0097 11.3228 15.4915 10.159Z" fill="#67C15E"/>
</svg>
