<svg width="60" height="60" viewBox="0 0 60 60" fill="none" xmlns="http://www.w3.org/2000/svg">
<path d="M0 52.2636C0 56.5368 3.46372 60 7.73643 60H52.2636C56.5368 60 60 56.5363 60 52.2636V7.73643C60 3.46325 56.5363 0 52.2636 0H7.73643C3.46325 0 0 3.46372 0 7.73643V52.2636Z" fill="#563D7C"/>
<path d="M24.8807 26.5402V18.0433H32.36C33.0723 18.0433 33.7592 18.1026 34.4206 18.2213C35.0821 18.3401 35.6672 18.5521 36.176 18.8573C36.6848 19.1626 37.0918 19.5866 37.3971 20.1293C37.7024 20.6721 37.855 21.3674 37.855 22.2154C37.855 23.7418 37.3971 24.8442 36.4813 25.5226C35.5654 26.201 34.3952 26.5402 32.9706 26.5402H24.8807ZM16.8926 11.8359V48.1641H34.497C36.1251 48.1641 37.7109 47.9605 39.2542 47.5535C40.7976 47.1465 42.1713 46.519 43.3755 45.671C44.5796 44.823 45.5379 43.7291 46.2502 42.3892C46.9625 41.0494 47.3187 39.4636 47.3187 37.632C47.3187 35.3593 46.7675 33.4174 45.6651 31.8062C44.5627 30.195 42.8921 29.0672 40.6534 28.4227C42.2816 27.6426 43.5112 26.6419 44.3422 25.4208C45.1732 24.1997 45.5887 22.6733 45.5887 20.8416C45.5887 19.1456 45.3089 17.721 44.7492 16.5678C44.1896 15.4145 43.4009 14.4902 42.3833 13.7948C41.3657 13.0994 40.1446 12.5991 38.72 12.2939C37.2953 11.9886 35.7181 11.8359 33.9882 11.8359H16.8926ZM24.8807 41.9567V31.9843H33.5811C35.3111 31.9843 36.7017 32.3829 37.7533 33.18C38.8048 33.9771 39.3305 35.3084 39.3305 37.174C39.3305 38.1238 39.1694 38.904 38.8472 39.5145C38.5249 40.1251 38.0925 40.6084 37.5497 40.9646C37.007 41.3207 36.3795 41.5751 35.6672 41.7278C34.9549 41.8804 34.2087 41.9567 33.4285 41.9567H24.8807Z" fill="white"/>
</svg>
