<svg width="60" height="69" viewBox="0 0 60 69" fill="none" xmlns="http://www.w3.org/2000/svg">
<path d="M5.45852 61.2468L0 0H60L54.5342 61.237L29.9635 68.0493L5.45852 61.2468Z" fill="#1572B6"/>
<path d="M30 62.8434L49.8558 57.3387L54.5269 5.00885H30V62.8434Z" fill="#33A9DC"/>
<path d="M30 27.1979H39.9401L40.6254 19.5059H30V11.9937H30.0267H48.8351L48.6552 14.0085L46.8106 34.71H30V27.1979Z" fill="white"/>
<path d="M30.0463 46.7062L30.0122 46.7159L21.647 44.4557L21.1124 38.4649H17.0464H13.571L14.6234 50.2593L30.0098 54.5318L30.0463 54.5221V46.7062Z" fill="#EBEBEB"/>
<path d="M39.301 34.3916L38.3969 44.4507L30.0195 46.7109V54.5269L45.4181 50.2592L45.5323 48.9906L46.8374 34.3916H39.301Z" fill="white"/>
<path d="M30.0268 11.9937V16.6599V19.4864V19.5059H11.9062H11.8819L11.7313 17.8168L11.3886 14.0085L11.2087 11.9937H30.0268Z" fill="#EBEBEB"/>
<path d="M29.9998 27.1978V31.8641V34.6905V34.71H21.7634H21.7391L21.5884 33.0209L21.2482 29.2126L21.0684 27.1978H29.9998Z" fill="#EBEBEB"/>
</svg>
