<svg width="60" height="69" viewBox="0 0 60 69" fill="none" xmlns="http://www.w3.org/2000/svg">
<path d="M5.46051 61.2418L0 0H60L54.5322 61.2321L29.9636 68.0437L5.46051 61.2418Z" fill="#E44F26"/>
<path d="M30 62.8383L49.8542 57.3341L54.5249 5.00842H30V62.8383Z" fill="#F1662A"/>
<path d="M30 27.7206H20.0608L19.3755 20.0292H30V12.5176H29.9733H11.1665L11.3463 14.5347L13.1908 35.2321H30V27.7206Z" fill="#EBEBEB"/>
<path d="M29.9998 47.2272L29.9657 47.2369L21.6012 44.9794L21.0666 38.9891H17.001H13.5259L14.5781 50.7801L29.9657 55.0523L29.9998 55.0425V47.2272Z" fill="#EBEBEB"/>
<path d="M29.9731 27.7205V35.232H39.2222L38.3522 44.9744L29.9731 47.2344V55.0497L45.3729 50.78L45.4847 49.5115L47.249 29.7375L47.4337 27.7205H45.4094H29.9731Z" fill="white"/>
<path d="M29.9731 12.5176V17.1835V20.0122V20.0292H48.0922H48.1165L48.2672 18.3427L48.6098 14.5347L48.7897 12.5176H29.9731Z" fill="white"/>
</svg>
