<svg width="60" height="60" viewBox="0 0 60 60" fill="none" xmlns="http://www.w3.org/2000/svg">
<path d="M0 0H60V60H0V0Z" fill="#F5DE19"/>
<path d="M40.3052 46.8751C40.8164 47.9135 41.6107 48.7863 42.5964 49.3929C43.5822 49.9995 44.7193 50.3152 45.8767 50.3036C48.2124 50.3036 49.7059 49.1358 49.7059 47.5179C49.7059 45.5894 48.1717 44.8994 45.6002 43.7744L44.1902 43.1701C40.1188 41.4365 37.4188 39.2658 37.4188 34.6758C37.4188 30.4479 40.6331 27.2272 45.6752 27.2272C47.3074 27.1093 48.9383 27.4747 50.3642 28.2776C51.7902 29.0805 52.9482 30.2855 53.6938 31.7422L49.2859 34.5601C48.9988 33.8378 48.4989 33.2198 47.8526 32.7881C47.2062 32.3564 46.4438 32.1314 45.6667 32.1429C45.3276 32.109 44.9851 32.146 44.6612 32.2518C44.3372 32.3575 44.0388 32.5295 43.785 32.7569C43.5312 32.9843 43.3275 33.2621 43.187 33.5725C43.0465 33.883 42.9722 34.2193 42.9688 34.5601C42.9688 36.2508 44.0167 36.9365 46.4359 37.9886L47.8459 38.5929C52.6374 40.6479 55.3459 42.7415 55.3459 47.4494C55.3459 52.5258 51.3581 55.3072 46.0031 55.3072C43.9166 55.4402 41.8362 54.9664 40.013 53.9432C38.1897 52.92 36.7016 51.391 35.7281 49.5408L40.3052 46.8751ZM20.3874 47.3636C21.2724 48.9344 22.0781 50.2629 24.0152 50.2629C25.8666 50.2629 27.0366 49.5386 27.0366 46.7208V27.5486H32.6745V46.7958C32.6745 52.6329 29.2459 55.2901 24.2552 55.2901C22.4911 55.3865 20.7391 54.9469 19.2295 54.029C17.72 53.111 16.5235 51.7578 15.7974 50.1472L20.3874 47.3636Z" fill="black"/>
</svg>
