<svg width="60" height="60" viewBox="0 0 60 60" fill="none" xmlns="http://www.w3.org/2000/svg">
<path d="M44.5319 56.2513C44.3093 56.3688 44.3218 56.4163 44.5444 56.3038C44.6095 56.2758 44.6688 56.236 44.7194 56.1863C44.7194 56.1463 44.7144 56.1513 44.5319 56.2513ZM44.9769 56.0163C44.8719 56.0988 44.8719 56.1038 44.9994 56.0387C45.0694 56.0037 45.1294 55.9637 45.1294 55.9512C45.1294 55.9037 45.0994 55.9162 44.9769 56.0163ZM45.2694 55.8387C45.1644 55.9212 45.1644 55.9262 45.2919 55.8612C45.3619 55.8262 45.4219 55.7862 45.4219 55.7737C45.4219 55.7262 45.3919 55.7387 45.2694 55.8387ZM45.5619 55.6637C45.4569 55.7462 45.4569 55.7512 45.5844 55.6862C45.6544 55.6512 45.7144 55.6112 45.7144 55.5987C45.7144 55.5512 45.6844 55.5637 45.5619 55.6637ZM45.9669 55.4012C45.7619 55.5312 45.6969 55.6187 45.8794 55.5187C46.0094 55.4437 46.2194 55.2837 46.1844 55.2787C46.1077 55.3116 46.0348 55.3527 45.9669 55.4012ZM28.0337 0.00892077C27.9037 0.0214213 27.4936 0.061423 27.1236 0.0914242C18.6033 0.858956 10.6204 5.45665 5.56523 12.5244C2.77052 16.4037 0.953956 20.9005 0.270011 25.6325C0.0300012 27.2801 0 27.7676 0 30.0027C0 32.2378 0.0300012 32.7228 0.270011 34.3729C1.90008 45.6383 9.91791 55.1037 20.7909 58.6114C22.7384 59.2389 24.791 59.6664 27.1236 59.9239C28.0337 60.0239 31.9613 60.0239 32.8714 59.9239C36.899 59.4789 40.3142 58.4814 43.6793 56.7638C44.1943 56.4988 44.2943 56.4288 44.2243 56.3713C42.5806 54.1993 40.9521 52.0159 39.3391 49.821L34.5414 43.3407L28.5312 34.4454C26.5328 31.4689 24.5152 28.5053 22.4784 25.555C22.4559 25.55 22.4309 29.5026 22.4209 34.3278C22.4034 42.7782 22.3984 43.1182 22.2909 43.3182C22.1889 43.5519 22.006 43.741 21.7759 43.8507C21.5884 43.9457 21.4234 43.9632 20.5384 43.9632H19.5233L19.2533 43.7932C19.0867 43.6883 18.9512 43.5407 18.8608 43.3657L18.7383 43.1007L18.7508 31.3427L18.7683 19.5797L18.9508 19.3522C19.0734 19.2082 19.2207 19.0871 19.3858 18.9947C19.6258 18.8772 19.7208 18.8647 20.7359 18.8647C21.9334 18.8647 22.1309 18.9122 22.4434 19.2522C24.8764 22.873 27.289 26.5074 29.6812 30.1552C33.5764 36.0604 38.8991 44.1233 41.5167 48.0834L46.2669 55.2787L46.5069 55.1212C48.7926 53.6008 50.8652 51.7822 52.6697 49.7135C56.4498 45.3875 58.9013 40.0626 59.73 34.3778C59.97 32.7303 60 32.2428 60 30.0077C60 27.7726 59.97 27.2876 59.73 25.6375C58.0999 14.372 50.0821 4.90662 39.2091 1.39898C37.1772 0.752071 35.0846 0.313955 32.9639 0.0914242C32.4013 0.0339218 28.5237 -0.0310809 28.0387 0.0164211L28.0337 0.00892077ZM40.3142 18.1547C40.454 18.2249 40.5784 18.3224 40.6802 18.4413C40.7819 18.5602 40.8589 18.6982 40.9067 18.8472C40.9542 18.9997 40.9642 22.2598 40.9542 29.6077L40.9367 40.1531L39.0766 37.303L37.2116 34.4529V26.7875C37.2116 21.8323 37.2341 19.0472 37.2691 18.9122C37.3115 18.7564 37.3846 18.6106 37.4842 18.4836C37.5839 18.3565 37.7079 18.2506 37.8491 18.1722C38.0891 18.0497 38.1766 18.0372 39.0991 18.0372C39.9667 18.0372 40.1192 18.0497 40.3142 18.1547Z" fill="black"/>
</svg>
