<svg width="60" height="54" viewBox="0 0 60 54" fill="none" xmlns="http://www.w3.org/2000/svg">
<path d="M49.332 17.3024C48.7096 17.0882 48.0647 16.8855 47.4006 16.6938C47.5097 16.2483 47.6099 15.8086 47.699 15.3764C49.1611 8.27927 48.2051 2.56178 44.9408 0.679334C41.8107 -1.12568 36.6917 0.756337 31.5218 5.25557C31.0246 5.68822 30.5261 6.14628 30.0278 6.62634C29.6957 6.30872 29.3642 6.00178 29.0336 5.70819C23.6153 0.897312 18.1844 -1.13006 14.9233 0.757832C11.7962 2.56808 10.8701 7.94307 12.1862 14.6691C12.3133 15.3187 12.4619 15.9822 12.6299 16.6567C11.8612 16.8749 11.1192 17.1075 10.4092 17.355C4.05687 19.5697 0 23.0406 0 26.6409C0 30.3594 4.35506 34.089 10.9715 36.3505C11.4936 36.5289 12.0354 36.6977 12.5938 36.8579C12.4125 37.5874 12.2549 38.3023 12.1226 38.9996C10.8677 45.6089 11.8477 50.8569 14.9664 52.6557C18.1878 54.5134 23.5942 52.6039 28.8586 48.0022C29.2747 47.6384 29.6923 47.2526 30.1106 46.8483C30.6529 47.3704 31.1942 47.8646 31.7327 48.3281C36.8319 52.7162 41.8683 54.4881 44.9841 52.6842C48.2023 50.8212 49.2482 45.1836 47.8904 38.3246C47.7867 37.8007 47.666 37.2655 47.5304 36.7209C47.9101 36.6086 48.2828 36.4927 48.6463 36.3723C55.5247 34.0933 60 30.409 60 26.6409C60 23.0276 55.8123 19.5332 49.332 17.3024ZM47.8402 33.9393C47.5121 34.0479 47.1754 34.1529 46.8324 34.2547C46.0731 31.8507 45.0482 29.2945 43.7941 26.6534C44.9909 24.0753 45.9761 21.5517 46.7142 19.1634C47.328 19.341 47.9237 19.5283 48.4977 19.726C54.05 21.6374 57.4368 24.4634 57.4368 26.6409C57.4368 28.9604 53.7792 31.9714 47.8402 33.9393ZM45.3759 38.8223C45.9763 41.8553 46.0621 44.5975 45.6643 46.7412C45.307 48.6674 44.5883 49.9517 43.6998 50.466C41.8089 51.5605 37.7653 50.1378 33.4043 46.3851C32.9044 45.9549 32.4008 45.4956 31.8957 45.0094C33.5863 43.1604 35.276 41.0109 36.9251 38.6236C39.8256 38.3662 42.566 37.9454 45.0511 37.3709C45.1735 37.8647 45.2822 38.3489 45.3759 38.8223ZM20.4554 50.2769C18.6079 50.9293 17.1366 50.948 16.2471 50.4352C14.3546 49.3436 13.5678 45.1299 14.641 39.4777C14.7639 38.8304 14.9102 38.1654 15.0789 37.4858C17.5367 38.0293 20.257 38.4204 23.1645 38.6561C24.8247 40.9921 26.5632 43.1393 28.3151 45.0194C27.9324 45.3889 27.5511 45.7407 27.172 46.0722C24.8441 48.107 22.5112 49.5508 20.4554 50.2769ZM11.8005 33.9251C8.8748 32.9251 6.45868 31.6255 4.80255 30.2073C3.31441 28.9328 2.56307 27.6676 2.56307 26.6409C2.56307 24.4561 5.82034 21.6694 11.2529 19.7753C11.9121 19.5455 12.6021 19.3289 13.3182 19.1255C14.069 21.5678 15.0539 24.1212 16.2424 26.7033C15.0385 29.3237 14.0396 31.9179 13.2814 34.3888C12.7709 34.2421 12.2764 34.0876 11.8005 33.9251ZM14.7017 14.1768C13.5741 8.41416 14.3229 4.067 16.2074 2.97616C18.2147 1.81408 22.6534 3.47096 27.3316 7.62491C27.6307 7.89042 27.9309 8.16831 28.2319 8.45581C26.4887 10.3277 24.7661 12.4588 23.1206 14.781C20.2988 15.0425 17.5976 15.4627 15.1141 16.0253C14.958 15.3972 14.8197 14.7801 14.7017 14.1768ZM40.5829 20.5676C39.9893 19.5421 39.3797 18.5409 38.7584 17.567C40.6728 17.809 42.5069 18.1302 44.2294 18.5233C43.7123 20.1807 43.0677 21.9135 42.309 23.6899C41.7648 22.6566 41.1891 21.6148 40.5829 20.5676ZM30.0286 10.2876C31.2109 11.5685 32.3949 12.9985 33.5594 14.5501C32.3859 14.4947 31.1979 14.4658 30 14.4658C28.8135 14.4658 27.6342 14.494 26.4679 14.5485C27.6336 13.0113 28.8279 11.5832 30.0286 10.2876ZM19.4067 20.5853C18.8136 21.6137 18.2487 22.6499 17.713 23.6879C16.9665 21.9177 16.328 20.177 15.8064 18.4962C17.5183 18.1131 19.3438 17.7999 21.246 17.5625C20.6159 18.5453 20.0014 19.5542 19.4067 20.5853ZM21.3008 35.9022C19.3355 35.683 17.4825 35.3859 15.771 35.0134C16.301 33.3025 16.9536 31.5247 17.7158 29.7163C18.2529 30.7537 18.8202 31.7903 19.4168 32.8209C20.0246 33.8708 20.6544 34.8993 21.3008 35.9022ZM30.0995 43.1749C28.8847 41.8642 27.673 40.4143 26.4895 38.8547C27.6383 38.8998 28.8096 38.9228 30 38.9228C31.223 38.9228 32.4319 38.8953 33.6219 38.8423C32.4535 40.43 31.2738 41.8821 30.0995 43.1749ZM42.3335 29.6242C43.1354 31.452 43.8115 33.2206 44.3483 34.9023C42.6086 35.2991 40.7303 35.6188 38.7513 35.8563C39.3742 34.8693 39.989 33.8508 40.5932 32.8032C41.2044 31.7434 41.7848 30.6819 42.3335 29.6242ZM38.3729 31.5227C37.435 33.149 36.4721 34.7014 35.4946 36.1668C33.7142 36.2941 31.8748 36.3597 30 36.3597C28.1328 36.3597 26.3166 36.3017 24.5677 36.1881C23.5507 34.7035 22.5669 33.1465 21.635 31.5367C20.7055 29.9313 19.8502 28.3123 19.0751 26.7025C19.85 25.0888 20.7032 23.468 21.6274 21.8655L21.6272 21.8658C22.5537 20.259 23.5289 18.7096 24.5365 17.2343C26.3209 17.0994 28.1507 17.029 29.9999 17.029C31.8575 17.029 33.6897 17.0999 35.4736 17.236C36.4657 18.7005 37.4343 20.2449 38.3645 21.852C39.3053 23.477 40.1695 25.087 40.9511 26.666C40.1719 28.2722 39.3096 29.8984 38.3729 31.5227ZM43.6605 2.8999C45.6697 4.05857 46.451 8.73146 45.1887 14.8591C45.1081 15.2501 45.0175 15.6483 44.919 16.0519C42.4297 15.4775 39.7266 15.0501 36.8966 14.7846C35.2479 12.4369 33.5394 10.3025 31.8246 8.45464C32.2856 8.0111 32.746 7.58817 33.2045 7.18907C37.6341 3.33415 41.7742 1.81215 43.6605 2.8999ZM30 21.2831C32.959 21.2831 35.3578 23.6819 35.3578 26.6409C35.3578 29.5999 32.959 31.9987 30 31.9987C27.041 31.9987 24.6422 29.5999 24.6422 26.6409C24.6422 23.6819 27.041 21.2831 30 21.2831Z" fill="#00D8FF"/>
</svg>
