<svg width="60" height="45" viewBox="0 0 60 45" fill="none" xmlns="http://www.w3.org/2000/svg">
<path d="M51.6588 25.8634C49.7748 25.8659 47.916 26.2967 46.2229 27.1233C45.6929 26.2436 45.2835 25.2967 45.0059 24.3079C44.8464 23.5328 44.8095 22.7375 44.8966 21.951C45.0798 21.0855 45.3174 20.2325 45.608 19.3969C45.5973 19.2876 45.4773 18.7713 44.271 18.7541C43.0647 18.737 42.0255 18.9834 41.9141 19.3026C41.7046 19.8858 41.5363 20.4829 41.4106 21.0896C40.4122 23.5526 39.1833 25.9157 37.7402 28.1475C36.9317 26.822 36.5992 25.2606 36.7975 23.7208C36.9806 22.8553 37.2182 22.0023 37.5088 21.1667C37.4981 21.0575 37.3781 20.5411 36.1718 20.524C34.9655 20.5068 33.9263 20.7532 33.8149 21.0725C33.7035 21.3917 33.5621 22.1438 33.3114 22.8594C33.0607 23.5751 30.1339 30.1144 29.3668 31.8007C28.9726 32.6577 28.6319 33.3562 28.3919 33.8276C28.3805 33.8582 28.3662 33.8876 28.349 33.9154C28.1348 34.3204 28.0212 34.5411 28.0212 34.5411V34.5518C27.8562 34.8475 27.6805 35.1217 27.5927 35.1217C27.4395 34.5096 27.4468 33.8683 27.6141 33.2598C28.0426 30.9907 29.0925 27.464 29.0818 27.3418C29.0818 27.2754 29.2789 26.6626 28.4026 26.3455C28.1994 26.2488 27.9711 26.2175 27.7493 26.2558C27.5275 26.2942 27.3231 26.4004 27.1642 26.5598C27.087 26.5598 27.0335 26.7462 27.0335 26.7462C27.0335 26.7462 27.9869 22.7801 25.2144 22.7801C24.1347 22.9973 23.1093 23.4282 22.1986 24.0475C21.2879 24.6668 20.5102 25.462 19.9113 26.3862C19.1657 26.7912 17.578 27.6568 15.8789 28.5888C15.2361 28.9509 14.5633 29.3131 13.9398 29.6602C13.8969 29.6173 13.852 29.5616 13.8091 29.5187C10.4344 25.9234 4.23151 23.3865 4.49934 18.5763C4.5979 16.8236 5.19998 12.2212 16.4103 6.63109C25.6365 2.08441 32.9793 3.34428 34.2499 6.13828C36.069 10.1279 30.316 17.535 20.7834 18.6084C19.7288 18.8224 18.6396 18.7966 17.5963 18.5329C16.5531 18.2692 15.5824 17.7744 14.7561 17.085C14.2526 16.5365 14.1755 16.5044 13.9891 16.6136C13.6827 16.7786 13.8798 17.2714 13.9891 17.5564C14.3527 18.2145 14.8446 18.7931 15.4356 19.2579C16.0267 19.7227 16.7049 20.0643 17.4302 20.2626C21.1803 21.0729 25.0902 20.6855 28.6083 19.1548C34.3934 16.92 38.893 10.7064 37.5731 5.50192C36.2468 0.220313 27.4813 -1.52165 19.185 1.4309C13.9885 3.17946 9.18707 5.93366 5.05428 9.5365C0.484037 13.8111 -0.238033 17.5243 0.057651 19.082C1.12897 24.6057 8.73748 28.1989 11.7822 30.8665C11.6279 30.9543 11.4865 31.0315 11.3665 31.0957C9.84308 31.8521 4.03653 34.8882 2.58168 38.0979C0.938275 41.7404 2.84522 44.3437 4.10509 44.6951C6.00349 45.1495 7.99639 44.9998 9.80561 44.2669C11.6148 43.534 13.15 42.2544 14.1969 40.6069C15.0884 39.2404 15.6364 37.6786 15.7942 36.0546C15.952 34.4307 15.7149 32.7926 15.1033 31.28C15.0929 31.2555 15.0784 31.2331 15.0604 31.2136L16.2539 30.5129C17.0316 30.0523 17.7987 29.6259 18.4565 29.2745C18.0104 30.561 17.7486 31.9042 17.6787 33.2641C17.5273 35.3484 18.1651 37.4134 19.4657 39.0492C19.6636 39.2196 19.8933 39.3489 20.1416 39.4299C20.3898 39.5108 20.6517 39.5416 20.9119 39.5206C22.1975 39.5206 22.7868 38.4493 23.4317 37.1765C24.2202 35.621 24.9315 33.8126 24.9315 33.8126C24.9315 33.8126 24.0445 38.7 26.455 38.7C27.3313 38.7 28.2183 37.5601 28.6147 36.9858V36.9966C28.6147 36.9966 28.6362 36.9644 28.6812 36.8873L28.8226 36.658V36.6366C29.174 36.0238 29.9625 34.6311 31.1345 32.3192C32.6472 29.3388 34.1042 25.6127 34.1042 25.6127C34.2447 26.4316 34.4387 27.2404 34.6848 28.0339C35.0377 28.9958 35.4551 29.9328 35.934 30.8386C35.5826 31.3314 35.364 31.6057 35.364 31.6057L35.3748 31.6164C35.0898 31.9892 34.7834 32.3942 34.4427 32.7884C33.4291 33.9028 32.4887 35.0815 31.6273 36.3173C31.4993 36.5249 31.4553 36.7735 31.5043 37.0124C31.5532 37.2512 31.6915 37.4625 31.8908 37.6029C32.3419 37.8376 32.856 37.9224 33.3585 37.845C34.1158 37.8023 34.8605 37.6321 35.5612 37.3415C36.2383 37.1032 36.877 36.7676 37.4574 36.3452C38.0557 35.9307 38.5373 35.3692 38.8559 34.7148C39.1744 34.0604 39.3193 33.335 39.2765 32.6084C39.2091 31.6932 38.9753 30.7979 38.5866 29.9666C38.6958 29.8123 38.8008 29.6602 38.9037 29.5059C40.1218 27.6876 41.2198 25.7916 42.1905 23.83C42.331 24.6489 42.525 25.4577 42.7711 26.2512C43.0622 27.0825 43.4205 27.8886 43.8425 28.6617C42.4411 29.7399 41.3372 31.1571 40.6349 32.7798C39.945 34.7746 40.4807 35.6724 41.492 35.8802C42.0454 35.9184 42.5987 35.8051 43.0925 35.5524C43.8186 35.3138 44.5026 34.9624 45.1195 34.5111C45.7699 34.1272 46.3146 33.5877 46.7047 32.941C47.0948 32.2944 47.318 31.5608 47.3542 30.8065C47.3056 30.0535 47.1356 29.3133 46.8507 28.6146C48.7 27.8921 50.7052 27.6617 52.6701 27.9461C57.8853 28.5588 58.9159 31.8135 58.7188 33.1848C58.6264 33.6709 58.4309 34.1316 58.1456 34.536C57.8603 34.9403 57.4917 35.2788 57.0647 35.5288C56.7026 35.7581 56.5826 35.8352 56.6147 36.0002C56.6576 36.2423 56.829 36.2295 57.1397 36.1866C57.9257 35.9423 58.6192 35.4655 59.1287 34.8191C59.6382 34.1726 59.9398 33.3869 59.9937 32.5656C60.1587 29.3516 57.0904 25.827 51.6652 25.8591L51.6588 25.8634ZM11.4201 39.422C9.68881 41.3075 7.27834 42.0189 6.23702 41.4168C5.11856 40.774 5.5578 37.9886 7.6833 35.9917C8.94413 34.8567 10.3069 33.8403 11.7543 32.9555C12.0071 32.8013 12.38 32.5827 12.8256 32.3127L12.9456 32.2463L13.2092 32.0813C13.5889 33.3536 13.6233 34.704 13.3089 35.994C12.9945 37.284 12.3426 38.4671 11.4201 39.422ZM24.0209 30.8515C23.4188 32.3192 22.159 36.0795 21.3919 35.8695C20.7341 35.6938 20.3206 32.8441 21.2612 30.0287C21.7361 28.6734 22.4279 27.4041 23.3096 26.2705C24.2523 25.2185 25.2936 24.8671 25.5443 25.2956C25.3156 27.213 24.8022 29.0856 24.0209 30.8515ZM34.4191 35.8267C34.1663 35.9574 33.9263 36.0409 33.8171 35.9809C33.7399 35.9381 33.9263 35.7667 33.9263 35.7667C33.9263 35.7667 35.2312 34.3633 35.7454 33.729C36.0411 33.3562 36.3882 32.9191 36.7653 32.4242V32.5656C36.7653 34.2411 35.1434 35.3703 34.4213 35.831L34.4191 35.8267ZM42.4412 33.9969C42.2548 33.8662 42.2869 33.4269 42.9126 32.0578C43.3476 31.1785 43.9553 30.3958 44.6995 29.7566C44.8136 30.0809 44.873 30.422 44.8752 30.7658C44.8837 31.4976 44.6497 32.2116 44.2098 32.7964C43.7698 33.3813 43.1487 33.8041 42.4433 33.999L42.4412 33.9969Z" fill="#CD6799"/>
</svg>
