<svg width="60" height="36" viewBox="0 0 60 36" fill="none" xmlns="http://www.w3.org/2000/svg">
<path d="M30 0C22 0 17 4 15 12C18 8 21.5 6.5 25.5 7.5C27.7822 8.07055 29.4134 9.72622 31.219 11.559C34.1603 14.5446 37.5646 18 45 18C53 18 58 14 60 6C57 10 53.5 11.5 49.5 10.5C47.2178 9.92944 45.5866 8.27378 43.781 6.441C40.8397 3.45544 37.4354 0 30 0ZM15 18C7 18 2 22 0 30C3 26 6.5 24.5 10.5 25.5C12.7822 26.0706 14.4134 27.7262 16.219 29.559C19.1603 32.5446 22.5646 36 30 36C38 36 43 32 45 24C42 28 38.5 29.5 34.5 28.5C32.2178 27.9294 30.5866 26.2738 28.781 24.441C25.8397 21.4554 22.4354 18 15 18Z" fill="url(#paint0_linear_2008_1030)"/>
<defs>
<linearGradient id="paint0_linear_2008_1030" x1="-426.667" y1="1774.08" x2="14275" y2="6873.32" gradientUnits="userSpaceOnUse">
<stop stop-color="#2298BD"/>
<stop offset="1" stop-color="#0ED7B5"/>
</linearGradient>
</defs>
</svg>
